<svg width="34px" height="34px" viewBox="0 0 34 34" xmlns="http://www.w3.org/2000/svg"><path fill="#CC0F16" fill-rule="evenodd" d="M17.177 0C7.888 0 1.417 6.737 1.417 16.842C1.417 25.834 7.705 34 17.177 34C26.743 34 33.08 25.836 33.08 16.842C33.08 6.656 26.381 0 17.177 0L17.177 0ZM17.177 30.204C16.408 30.204 15.739 30.054 15.158 29.781C13.542 28.967 12.568 27.162 11.999 24.951C11.383 22.388 11.313 19.278 11.313 16.556C11.313 11.694 11.668 7.302 13.652 5.109C14.518 4.189 15.659 3.644 17.159 3.64C17.165 3.64 17.171 3.639 17.177 3.639C19.13 3.639 20.5 4.596 21.45 6.096C22.866 8.487 23.188 12.363 23.188 16.534C23.188 22.455 22.795 30.204 17.177 30.204L17.177 30.204Z"/></svg>