<svg xmlns="http://www.w3.org/2000/svg" viewBox="0 0 24 24" width="34px" height="34px">    <path fill="#0361FF" d="M 3 5 C 1.9069372 5 1 5.9069372 1 7 L 1 18 C 1 19.093063 1.9069372 20 3 20 L 21 20 C 22.093063 20 23 19.093063 23 18 L 23 7 C 23 5.9069372 22.093063 5 21 5 L 3 5 z M 3 7 L 21 7 L 21 18 L 3 18 L 3 7 z M 8 10 L 8 13 L 8 15 L 9 15 L 9 13.117188 L 9.9414062 15 L 11.058594 15 L 10.011719 12.904297 C 10.587719 12.694297 11 12.148 11 11.5 C 11 10.672 10.328 10 9.5 10 L 9 10 L 8 10 z M 12 10 L 12 15 L 15 15 L 15 14 L 13 14 L 13 13 L 14.599609 13 L 14.599609 12 L 13 12 L 13 11 L 15 11 L 15 10 L 12 10 z M 18 10 C 16.895 10 16 10.895 16 12 L 16 13 C 16 14.105 16.895 15 18 15 C 19.105 15 20 14.105 20 13 L 19 13 C 19 13.551 18.551 14 18 14 C 17.449 14 17 13.551 17 13 L 17 12 C 17 11.449 17.449 11 18 11 C 18.551 11 19 11.449 19 12 L 20 12 C 20 10.895 19.105 10 18 10 z M 5.5 11 A 1.5 1.5 0 0 0 4 12.5 A 1.5 1.5 0 0 0 5.5 14 A 1.5 1.5 0 0 0 7 12.5 A 1.5 1.5 0 0 0 5.5 11 z M 9 11 L 9.5 11 C 9.776 11 10 11.224 10 11.5 C 10 11.776 9.776 12 9.5 12 L 9 12 L 9 11 z"/></svg>