<svg width="77" height="27" viewBox="0 0 77 27" fill="none" xmlns="http://www.w3.org/2000/svg">
<g clip-path="url(#clip0_0_1)">
<path d="M9.08634 15.0088V17.3691C8.99619 17.3937 8.85276 17.4183 8.65607 17.4429C8.46756 17.4675 8.27906 17.4798 8.09056 17.4798C7.90206 17.4798 7.73405 17.4634 7.58653 17.4306C7.4472 17.406 7.32836 17.3568 7.23002 17.2831C7.13986 17.2093 7.0702 17.1069 7.02103 16.9757C6.97185 16.8446 6.94727 16.6725 6.94727 16.4594V10.6692C6.94727 10.4971 6.99234 10.3659 7.08249 10.2758C7.18084 10.1774 7.31197 10.0996 7.47589 10.0422C7.75454 9.94385 8.07827 9.87419 8.44708 9.83321C8.81588 9.78404 9.20927 9.75945 9.62725 9.75945C10.7583 9.75945 11.6106 9.99712 12.1843 10.4725C12.758 10.9478 13.0449 11.5912 13.0449 12.4026C13.0449 12.9107 12.9137 13.3451 12.6515 13.7057C12.3892 14.0663 12.0778 14.3449 11.7172 14.5416C12.0122 14.9432 12.3031 15.3202 12.59 15.6726C12.8768 16.025 13.1022 16.3447 13.2661 16.6315C13.1842 16.9184 13.0326 17.1397 12.8113 17.2954C12.5982 17.4429 12.3564 17.5167 12.086 17.5167C11.9057 17.5167 11.7499 17.4962 11.6188 17.4552C11.4877 17.4142 11.3729 17.3568 11.2746 17.2831C11.1762 17.2093 11.0861 17.1192 11.0041 17.0126C10.9222 16.9061 10.8443 16.7913 10.7706 16.6684L9.73789 15.0088H9.08634ZM9.86083 13.3737C10.1723 13.3737 10.4181 13.2959 10.5984 13.1402C10.7787 12.9763 10.8689 12.7386 10.8689 12.4271C10.8689 12.1157 10.7665 11.8821 10.5616 11.7264C10.3649 11.5625 10.0493 11.4805 9.61496 11.4805C9.49202 11.4805 9.39368 11.4846 9.31992 11.4928C9.24615 11.501 9.1642 11.5133 9.07404 11.5297V13.3737H9.86083Z" fill="white"/>
<path d="M14.4386 11.1117C14.4386 10.7593 14.5411 10.4807 14.746 10.2758C14.9509 10.0709 15.2295 9.96844 15.5819 9.96844H19.6388C19.6962 10.0586 19.7453 10.1774 19.7863 10.325C19.8355 10.4725 19.8601 10.6282 19.8601 10.7921C19.8601 11.1035 19.7904 11.3248 19.6511 11.456C19.52 11.5871 19.3437 11.6527 19.1225 11.6527H16.5285V12.7959H19.2946C19.3519 12.8861 19.4011 13.0049 19.4421 13.1525C19.4913 13.2918 19.5159 13.4434 19.5159 13.6073C19.5159 13.9188 19.4503 14.14 19.3192 14.2712C19.188 14.4023 19.0118 14.4679 18.7905 14.4679H16.5285V15.7587H19.688C19.7453 15.8488 19.7945 15.9677 19.8355 16.1152C19.8847 16.2627 19.9092 16.4184 19.9092 16.5824C19.9092 16.8938 19.8396 17.1192 19.7003 17.2585C19.5691 17.3896 19.3929 17.4552 19.1716 17.4552H15.5819C15.2295 17.4552 14.9509 17.3527 14.746 17.1479C14.5411 16.943 14.4386 16.6643 14.4386 16.3119V11.1117Z" fill="white"/>
<path d="M20.7328 13.6811C20.7328 13.0418 20.8312 12.4763 21.0279 11.9846C21.2328 11.4928 21.5073 11.0831 21.8515 10.7552C22.2039 10.4192 22.6137 10.1651 23.0809 9.99303C23.5562 9.82092 24.0685 9.73486 24.6176 9.73486C25.1667 9.73486 25.6748 9.82092 26.142 9.99303C26.6173 10.1651 27.0312 10.4192 27.3836 10.7552C27.736 11.0831 28.0106 11.4928 28.2073 11.9846C28.4122 12.4763 28.5146 13.0418 28.5146 13.6811C28.5146 14.4843 28.3671 15.1686 28.072 15.7341C27.777 16.2914 27.3754 16.7299 26.8673 17.0495C26.9902 17.1069 27.1336 17.1683 27.2976 17.2339C27.4697 17.2995 27.6459 17.365 27.8262 17.4306C28.0147 17.4962 28.2073 17.5576 28.404 17.615C28.6007 17.6806 28.7851 17.7379 28.9572 17.7871C28.9654 17.8363 28.9695 17.8773 28.9695 17.9101C28.9695 17.951 28.9695 17.9879 28.9695 18.0207C28.9695 18.4878 28.8465 18.828 28.6007 19.0411C28.363 19.2541 28.0475 19.3607 27.6541 19.3607C27.2771 19.3607 26.8878 19.2541 26.4862 19.0411C26.0846 18.8362 25.6748 18.537 25.2568 18.1436L24.7159 17.6396H24.6176C24.0603 17.6396 23.5439 17.5535 23.0686 17.3814C22.5932 17.2011 22.1835 16.943 21.8392 16.6069C21.495 16.2709 21.2246 15.857 21.0279 15.3653C20.8312 14.8736 20.7328 14.3122 20.7328 13.6811ZM22.9456 13.6811C22.9456 14.4269 23.0973 14.9842 23.4005 15.353C23.7038 15.7218 24.1094 15.9062 24.6176 15.9062C25.1339 15.9062 25.5437 15.7218 25.8469 15.353C26.1502 14.9842 26.3018 14.4269 26.3018 13.6811C26.3018 12.9435 26.1502 12.3903 25.8469 12.0215C25.5519 11.6527 25.1462 11.4682 24.6299 11.4682C24.1217 11.4682 23.7119 11.6527 23.4005 12.0215C23.0973 12.3821 22.9456 12.9353 22.9456 13.6811Z" fill="white"/>
<path d="M36.3711 14.6646C36.3711 15.1071 36.2933 15.5128 36.1376 15.8816C35.99 16.2422 35.7729 16.5537 35.486 16.8159C35.1992 17.07 34.8508 17.2667 34.4411 17.406C34.0313 17.5453 33.5682 17.615 33.0519 17.615C32.5356 17.615 32.0725 17.5453 31.6627 17.406C31.2529 17.2667 30.9046 17.07 30.6178 16.8159C30.3309 16.5537 30.1096 16.2422 29.9539 15.8816C29.8064 15.5128 29.7326 15.1071 29.7326 14.6646V9.96844C29.8228 9.95205 29.9662 9.93156 30.1629 9.90697C30.3596 9.87419 30.5481 9.8578 30.7284 9.8578C30.9169 9.8578 31.0808 9.87419 31.2201 9.90697C31.3677 9.93156 31.4906 9.98073 31.589 10.0545C31.6873 10.1283 31.7611 10.2307 31.8102 10.3618C31.8594 10.493 31.884 10.6651 31.884 10.8782V14.6277C31.884 15.0211 31.9905 15.3284 32.2036 15.5497C32.4249 15.771 32.7077 15.8816 33.0519 15.8816C33.4043 15.8816 33.687 15.771 33.9001 15.5497C34.1132 15.3284 34.2198 15.0211 34.2198 14.6277V9.96844C34.3099 9.95205 34.4533 9.93156 34.65 9.90697C34.8467 9.87419 35.0352 9.8578 35.2155 9.8578C35.404 9.8578 35.568 9.87419 35.7073 9.90697C35.8548 9.93156 35.9777 9.98073 36.0761 10.0545C36.1744 10.1283 36.2482 10.2307 36.2974 10.3618C36.3465 10.493 36.3711 10.6651 36.3711 10.8782V14.6646Z" fill="white"/>
<path d="M37.9332 11.1117C37.9332 10.7593 38.0356 10.4807 38.2405 10.2758C38.4454 10.0709 38.7241 9.96844 39.0765 9.96844H43.1333C43.1907 10.0586 43.2399 10.1774 43.2809 10.325C43.33 10.4725 43.3546 10.6282 43.3546 10.7921C43.3546 11.1035 43.285 11.3248 43.1456 11.456C43.0145 11.5871 42.8383 11.6527 42.617 11.6527H40.0231V12.7959H42.7891C42.8465 12.8861 42.8957 13.0049 42.9366 13.1525C42.9858 13.2918 43.0104 13.4434 43.0104 13.6073C43.0104 13.9188 42.9448 14.14 42.8137 14.2712C42.6826 14.4023 42.5064 14.4679 42.2851 14.4679H40.0231V15.7587H43.1825C43.2399 15.8488 43.2891 15.9677 43.33 16.1152C43.3792 16.2627 43.4038 16.4184 43.4038 16.5824C43.4038 16.8938 43.3341 17.1192 43.1948 17.2585C43.0637 17.3896 42.8875 17.4552 42.6662 17.4552H39.0765C38.7241 17.4552 38.4454 17.3527 38.2405 17.1479C38.0356 16.943 37.9332 16.6643 37.9332 16.3119V11.1117Z" fill="white"/>
<path d="M46.8427 14.4556C46.4821 14.3326 46.1543 14.2097 45.8592 14.0868C45.5642 13.9556 45.3101 13.7999 45.097 13.6196C44.8839 13.4393 44.7159 13.2262 44.593 12.9804C44.4783 12.7263 44.4209 12.4189 44.4209 12.0583C44.4209 11.3617 44.6873 10.8044 45.22 10.3864C45.7609 9.96844 46.5149 9.75945 47.482 9.75945C47.8344 9.75945 48.1622 9.78404 48.4655 9.83321C48.7687 9.88239 49.0269 9.96024 49.2399 10.0668C49.4612 10.1651 49.6333 10.2963 49.7563 10.4602C49.8792 10.6159 49.9407 10.8003 49.9407 11.0134C49.9407 11.2265 49.8915 11.4109 49.7932 11.5666C49.6948 11.7141 49.576 11.8412 49.4366 11.9477C49.2563 11.833 49.0146 11.7346 48.7113 11.6527C48.4081 11.5625 48.0762 11.5174 47.7156 11.5174C47.3467 11.5174 47.0763 11.5707 46.9042 11.6772C46.7321 11.7756 46.646 11.9026 46.646 12.0583C46.646 12.1813 46.6993 12.2837 46.8058 12.3657C46.9124 12.4394 47.0722 12.5091 47.2853 12.5747L47.9368 12.7837C48.7072 13.0295 49.2973 13.3451 49.7071 13.7303C50.1251 14.1073 50.3341 14.6236 50.3341 15.2792C50.3341 15.9759 50.0595 16.5414 49.5104 16.9757C48.9613 17.4019 48.154 17.615 47.0886 17.615C46.7116 17.615 46.3592 17.5822 46.0313 17.5167C45.7117 17.4593 45.429 17.3732 45.1831 17.2585C44.9454 17.1356 44.7569 16.988 44.6176 16.8159C44.4865 16.6356 44.4209 16.4307 44.4209 16.2013C44.4209 15.9636 44.4906 15.7628 44.6299 15.5989C44.7692 15.4268 44.9208 15.2956 45.0847 15.2055C45.3142 15.3858 45.5929 15.5415 45.9207 15.6726C46.2567 15.8038 46.6214 15.8693 47.0148 15.8693C47.4164 15.8693 47.6992 15.8079 47.8631 15.6849C48.027 15.562 48.1089 15.4186 48.1089 15.2547C48.1089 15.0907 48.0434 14.9678 47.9123 14.8858C47.7811 14.7957 47.5967 14.7096 47.359 14.6277L46.8427 14.4556Z" fill="white"/>
<path d="M50.999 11.6895C50.9416 11.5994 50.8883 11.4764 50.8392 11.3207C50.79 11.165 50.7654 11.0011 50.7654 10.829C50.7654 10.5094 50.8351 10.2799 50.9744 10.1405C51.1219 10.0012 51.3104 9.93156 51.5399 9.93156H56.8999C56.9572 10.0217 57.0105 10.1446 57.0597 10.3004C57.1089 10.4561 57.1334 10.62 57.1334 10.7921C57.1334 11.1117 57.0597 11.3412 56.9122 11.4805C56.7728 11.6199 56.5884 11.6895 56.359 11.6895H54.9944V17.3691C54.9042 17.3937 54.7608 17.4183 54.5641 17.4429C54.3756 17.4675 54.1871 17.4798 53.9986 17.4798C53.8101 17.4798 53.6421 17.4634 53.4946 17.4306C53.3552 17.406 53.2364 17.3568 53.1381 17.2831C53.0397 17.2093 52.9659 17.1069 52.9168 16.9757C52.8676 16.8446 52.843 16.6725 52.843 16.4594V11.6895H50.999Z" fill="white"/>
<path d="M59.3176 17.4552C58.9652 17.4552 58.6865 17.3527 58.4816 17.1479C58.2767 16.943 58.1743 16.6643 58.1743 16.3119V9.95615C58.2644 9.93975 58.4078 9.91927 58.6045 9.89468C58.8012 9.8619 58.9897 9.8455 59.17 9.8455C59.3585 9.8455 59.5225 9.8619 59.6618 9.89468C59.8093 9.91927 59.9322 9.96844 60.0306 10.0422C60.1289 10.116 60.2027 10.2184 60.2519 10.3495C60.301 10.4807 60.3256 10.6528 60.3256 10.8659V15.7218H63.1408C63.1982 15.812 63.2515 15.9349 63.3007 16.0906C63.3498 16.2381 63.3744 16.3939 63.3744 16.5578C63.3744 16.8856 63.3048 17.1192 63.1654 17.2585C63.0261 17.3896 62.8417 17.4552 62.6122 17.4552H59.3176Z" fill="white"/>
<path d="M67.5581 17.3691C67.4679 17.3937 67.3286 17.4183 67.1401 17.4429C66.9516 17.4675 66.7672 17.4798 66.5869 17.4798C66.2099 17.4798 65.9271 17.4183 65.7386 17.2954C65.5501 17.1642 65.4559 16.8938 65.4559 16.484V14.8244C65.251 14.5211 65.0297 14.1851 64.792 13.8163C64.5543 13.4475 64.3208 13.0705 64.0913 12.6853C63.8618 12.3001 63.6487 11.9231 63.452 11.5543C63.2553 11.1773 63.0955 10.8331 62.9726 10.5216C63.0791 10.3741 63.2225 10.2389 63.4029 10.116C63.5914 9.99303 63.8208 9.93156 64.0913 9.93156C64.4109 9.93156 64.6691 9.99712 64.8658 10.1283C65.0707 10.2594 65.2633 10.5053 65.4436 10.8659L66.4639 12.9189H66.5377C66.6524 12.6648 66.7508 12.4353 66.8327 12.2304C66.9229 12.0174 67.009 11.8084 67.0909 11.6035C67.1729 11.3904 67.2589 11.1732 67.3491 10.9519C67.4392 10.7224 67.5417 10.4602 67.6564 10.1651C67.8039 10.0914 67.9678 10.034 68.1482 9.99303C68.3285 9.95205 68.5006 9.93156 68.6645 9.93156C68.9513 9.93156 69.1931 10.0094 69.3898 10.1651C69.5947 10.3127 69.6971 10.538 69.6971 10.8413C69.6971 10.9396 69.6766 11.0585 69.6357 11.1978C69.5947 11.3371 69.5004 11.5502 69.3529 11.8371C69.2054 12.1157 68.9882 12.4968 68.7014 12.9804C68.4227 13.4639 68.0416 14.095 67.5581 14.8736V17.3691Z" fill="white"/>
<path fill-rule="evenodd" clip-rule="evenodd" d="M55.8601 24.622C55.8601 24.2825 56.1353 24.0073 56.4748 24.0073H72.9948C74.7798 24.0073 76.2212 22.5672 76.2212 20.7911V15.1137C76.2212 14.7742 75.946 14.499 75.6066 14.499H74.9151H74.262C73.9225 14.499 73.6473 14.7742 73.6473 15.1137V20.1464C73.6473 20.8619 73.0733 21.4333 72.3655 21.4333H56.4748C56.1353 21.4333 55.8601 21.1581 55.8601 20.8187V19.0564C55.8601 18.5087 55.198 18.2345 54.8108 18.6217L51.1468 22.2857C50.9068 22.5257 50.9068 22.9149 51.1468 23.155L54.8108 26.8189C55.198 27.2061 55.8601 26.9319 55.8601 26.3843V24.622Z" fill="#0361FF"/>
<path fill-rule="evenodd" clip-rule="evenodd" d="M20.3606 2.37803C20.3606 2.71751 20.0854 2.99271 19.7459 2.99271H3.2259C1.44086 2.99271 -0.000537872 4.43284 -0.000537872 6.20886V11.8863C-0.000537872 12.2258 0.274662 12.501 0.614138 12.501H1.30565H1.95874C2.29822 12.501 2.57342 12.2258 2.57342 11.8863V6.85364C2.57342 6.13808 3.14741 5.56666 3.85525 5.56666H19.7459C20.0854 5.56666 20.3606 5.84186 20.3606 6.18134V7.94364C20.3606 8.49126 21.0227 8.7655 21.4099 8.37828L25.0739 4.71433C25.3139 4.47428 25.3139 4.08509 25.0739 3.84504L21.4099 0.181092C21.0227 -0.206132 20.3606 0.0681133 20.3606 0.615731V2.37803Z" fill="#0361FF"/>
<path d="M72.0546 21.5277C71.9895 21.2308 72.0666 20.9477 72.286 20.6784C72.5053 20.4091 72.8084 20.232 73.1952 20.1471C73.5859 20.0614 73.8955 20.0447 74.124 20.0969C74.3517 20.1452 74.481 20.2397 74.5118 20.3804C74.5427 20.521 74.476 20.6278 74.3118 20.7007C74.1145 20.5106 73.7912 20.4648 73.3419 20.5634C73.0762 20.6217 72.8731 20.7318 72.7325 20.8937C72.5911 21.0517 72.5397 21.2186 72.5782 21.3944C72.6168 21.5702 72.7148 21.69 72.8721 21.7538C73.0294 21.8175 73.2467 21.8558 73.5239 21.8687C73.8041 21.8768 74.0206 21.8928 74.1733 21.9166C74.3298 21.9396 74.4902 21.9802 74.6545 22.0383C74.9735 22.1485 75.1712 22.3774 75.2475 22.7252C75.323 23.069 75.2445 23.3831 75.012 23.6675C74.7788 23.9481 74.4511 24.1346 74.0292 24.2272C73.6072 24.3198 73.2651 24.3376 73.0027 24.2805C72.7434 24.2186 72.5971 24.1115 72.5636 23.9591C72.5293 23.8028 72.6063 23.6774 72.7944 23.5829C73.0032 23.8442 73.3616 23.9192 73.8695 23.8077C74.1938 23.7365 74.4317 23.6168 74.5831 23.4484C74.7376 23.2753 74.7925 23.0871 74.7479 22.8839C74.7025 22.6769 74.576 22.5388 74.3683 22.4697C74.1646 22.3997 73.859 22.3603 73.4517 22.3514C73.0473 22.3378 72.7295 22.2703 72.4981 22.1491C72.2668 22.0279 72.1189 21.8207 72.0546 21.5277Z" fill="white"/>
<path d="M74.124 20.0969L74.0349 20.4869L74.041 20.4882L74.124 20.0969ZM74.3118 20.7007L74.0343 20.9887L74.2281 21.1755L74.4741 21.0663L74.3118 20.7007ZM72.7325 20.8937L73.0306 21.1605L73.0345 21.1559L72.7325 20.8937ZM72.8721 21.7538L72.7219 22.1245L72.7219 22.1245L72.8721 21.7538ZM73.5239 21.8687L73.5053 22.2683L73.5123 22.2685L73.5239 21.8687ZM74.1733 21.9166L74.1115 22.3119L74.1152 22.3124L74.1733 21.9166ZM74.6545 22.0383L74.5211 22.4154L74.5239 22.4164L74.6545 22.0383ZM75.012 23.6675L75.3196 23.9233L75.3218 23.9207L75.012 23.6675ZM73.0027 24.2805L72.9099 24.6696L72.9177 24.6713L73.0027 24.2805ZM72.7944 23.5829L73.1068 23.3332L72.9044 23.08L72.6148 23.2255L72.7944 23.5829ZM74.5831 23.4484L74.8805 23.7159L74.8816 23.7147L74.5831 23.4484ZM74.3683 22.4697L74.2384 22.848L74.242 22.8492L74.3683 22.4697ZM73.4517 22.3514L73.4382 22.7512L73.4429 22.7513L73.4517 22.3514ZM72.4453 21.442C72.4103 21.2822 72.4414 21.121 72.5961 20.931L71.9759 20.4258C71.6918 20.7744 71.5687 21.1794 71.6639 21.6135L72.4453 21.442ZM72.5961 20.931C72.7505 20.7415 72.9694 20.6062 73.281 20.5379L73.1095 19.7564C72.6475 19.8578 72.2602 20.0768 71.9759 20.4258L72.5961 20.931ZM73.281 20.5379C73.6493 20.457 73.891 20.4539 74.0349 20.4868L74.2132 19.7069C73.9001 19.6354 73.5226 19.6658 73.1095 19.7564L73.281 20.5379ZM74.041 20.4882C74.08 20.4965 74.1082 20.5054 74.1277 20.5132C74.1473 20.521 74.1551 20.5265 74.1557 20.5269C74.1557 20.5269 74.1483 20.5215 74.1396 20.5087C74.1305 20.4953 74.1242 20.4802 74.1211 20.4661L74.9025 20.2946C74.82 19.9184 74.4843 19.7644 74.2071 19.7056L74.041 20.4882ZM74.1211 20.4661C74.1201 20.4613 74.1174 20.4455 74.1208 20.4222C74.1243 20.3979 74.1332 20.3741 74.1457 20.3541C74.1692 20.3164 74.1885 20.3178 74.1495 20.3351L74.4741 21.0663C74.5994 21.0107 74.7341 20.9222 74.8243 20.7778C74.921 20.6228 74.9369 20.4511 74.9025 20.2946L74.1211 20.4661ZM74.5894 20.4126C74.2445 20.0804 73.7467 20.065 73.2561 20.1727L73.4276 20.9541C73.8357 20.8645 73.9844 20.9407 74.0343 20.9887L74.5894 20.4126ZM73.2561 20.1727C72.9292 20.2444 72.641 20.3889 72.4305 20.6314L73.0345 21.1559C73.1051 21.0747 73.2232 20.999 73.4276 20.9541L73.2561 20.1727ZM72.4345 20.6269C72.2247 20.8613 72.1162 21.1553 72.1875 21.4801L72.9689 21.3087C72.9631 21.2819 72.9575 21.2421 73.0305 21.1605L72.4345 20.6269ZM72.1875 21.4801C72.2524 21.7756 72.4338 22.0077 72.7219 22.1245L73.0223 21.383C72.9996 21.3738 72.9928 21.3659 72.9903 21.3629C72.9871 21.359 72.977 21.3452 72.9689 21.3087L72.1875 21.4801ZM72.7219 22.1245C72.9393 22.2126 73.2078 22.2545 73.5053 22.2683L73.5425 21.4691C73.2855 21.4572 73.1196 21.4224 73.0223 21.383L72.7219 22.1245ZM73.5123 22.2685C73.7869 22.2765 73.9837 22.2919 74.1116 22.3119L74.2349 21.5214C74.0575 21.4937 73.8214 21.4772 73.5355 21.4689L73.5123 22.2685ZM74.1152 22.3124C74.2436 22.3313 74.3788 22.365 74.5211 22.4154L74.788 21.6612C74.6017 21.5953 74.416 21.548 74.2313 21.5209L74.1152 22.3124ZM74.5239 22.4164C74.7027 22.4781 74.8084 22.5902 74.8568 22.8109L75.6382 22.6394C75.534 22.1646 75.2444 21.8188 74.7851 21.6602L74.5239 22.4164ZM74.8568 22.8109C74.9048 23.0294 74.8613 23.2199 74.7023 23.4144L75.3218 23.9207C75.6277 23.5464 75.7412 23.1085 75.6382 22.6394L74.8568 22.8109ZM74.7045 23.4118C74.5381 23.6119 74.2951 23.7594 73.9434 23.8365L74.1149 24.6179C74.6072 24.5099 75.0194 24.2842 75.3196 23.9233L74.7045 23.4118ZM73.9434 23.8365C73.5474 23.9234 73.2698 23.9293 73.0878 23.8896L72.9177 24.6713C73.2603 24.7459 73.667 24.7162 74.1149 24.6179L73.9434 23.8365ZM73.0956 23.8914C72.9955 23.8675 72.9498 23.842 72.9347 23.831C72.9288 23.8266 72.9323 23.828 72.9387 23.8371C72.9455 23.847 72.9514 23.8599 72.9543 23.8734L72.1729 24.0449C72.2583 24.4338 72.6134 24.5988 72.9099 24.6696L73.0956 23.8914ZM72.9543 23.8734C72.955 23.8763 72.9571 23.8887 72.9543 23.9075C72.9513 23.927 72.9444 23.9443 72.9366 23.957C72.9294 23.9688 72.9245 23.9716 72.9296 23.9674C72.9349 23.963 72.9483 23.9533 72.974 23.9403L72.6148 23.2255C72.4814 23.2925 72.3453 23.3908 72.2546 23.5387C72.1571 23.6977 72.1358 23.8754 72.1729 24.0449L72.9543 23.8734ZM72.4819 23.8327C72.8326 24.2715 73.3895 24.3226 73.9553 24.1984L73.7838 23.417C73.3337 23.5158 73.1738 23.417 73.1068 23.3332L72.4819 23.8327ZM73.9553 24.1984C74.3249 24.1173 74.6526 23.9693 74.8805 23.7159L74.2857 23.1809C74.2108 23.2642 74.0627 23.3558 73.7838 23.417L73.9553 24.1984ZM74.8816 23.7147C75.1101 23.4586 75.2142 23.1426 75.1386 22.7982L74.3572 22.9697C74.3708 23.0316 74.3651 23.0919 74.2846 23.1821L74.8816 23.7147ZM75.1386 22.7982C75.0618 22.4481 74.8307 22.202 74.4946 22.0901L74.242 22.8492C74.3212 22.8756 74.3432 22.9056 74.3572 22.9697L75.1386 22.7982ZM74.4982 22.0914C74.2348 22.0009 73.8792 21.9606 73.4604 21.9515L73.4429 22.7513C73.8389 22.76 74.0944 22.7986 74.2384 22.848L74.4982 22.0914ZM73.4652 21.9516C73.0912 21.939 72.8407 21.877 72.6838 21.7948L72.3125 22.5034C72.6183 22.6637 73.0035 22.7365 73.4382 22.7512L73.4652 21.9516ZM72.6838 21.7948C72.5733 21.7369 72.4885 21.6387 72.4453 21.442L71.6639 21.6135C71.7494 22.0028 71.9603 22.3189 72.3125 22.5034L72.6838 21.7948Z" fill="white"/>
</g>
<path d="M57.834 20.926H59.028C59.564 20.926 60.016 21.084 60.384 21.4C60.564 21.56 60.706 21.774 60.81 22.042C60.918 22.31 60.972 22.618 60.972 22.966C60.972 23.314 60.918 23.622 60.81 23.89C60.706 24.154 60.564 24.364 60.384 24.52C60.016 24.84 59.564 25 59.028 25H57.834C57.682 25 57.606 24.926 57.606 24.778V21.154C57.606 21.002 57.682 20.926 57.834 20.926ZM58.122 21.382V24.556H58.98C59.444 24.556 59.808 24.42 60.072 24.148C60.336 23.876 60.468 23.482 60.468 22.966C60.468 22.45 60.336 22.058 60.072 21.79C59.808 21.518 59.444 21.382 58.98 21.382H58.122Z" fill="white"/>
<path d="M60.384 21.4L60.6498 21.101L60.6446 21.0965L60.384 21.4ZM60.81 22.042L60.4371 22.1867L60.439 22.1915L60.81 22.042ZM60.81 23.89L60.439 23.7405L60.4378 23.7434L60.81 23.89ZM60.384 24.52L60.122 24.2177L60.1215 24.2182L60.384 24.52ZM58.122 21.382V20.982H57.722V21.382H58.122ZM58.122 24.556H57.722V24.956H58.122V24.556ZM60.072 24.148L60.359 24.4266L60.359 24.4266L60.072 24.148ZM60.072 21.79L59.785 22.0686L59.787 22.0707L60.072 21.79ZM57.834 21.326H59.028V20.526H57.834V21.326ZM59.028 21.326C59.4792 21.326 59.8357 21.4564 60.1234 21.7035L60.6446 21.0965C60.1963 20.7116 59.6488 20.526 59.028 20.526V21.326ZM60.1183 21.699C60.2424 21.8094 60.3516 21.9665 60.4371 22.1867L61.1829 21.8973C61.0604 21.5815 60.8856 21.3106 60.6497 21.101L60.1183 21.699ZM60.439 22.1915C60.5244 22.4034 60.572 22.659 60.572 22.966H61.372C61.372 22.577 61.3116 22.2166 61.181 21.8925L60.439 22.1915ZM60.572 22.966C60.572 23.273 60.5244 23.5286 60.439 23.7405L61.181 24.0395C61.3116 23.7154 61.372 23.355 61.372 22.966H60.572ZM60.4378 23.7434C60.353 23.9588 60.2448 24.1113 60.122 24.2177L60.646 24.8223C60.8832 24.6167 61.059 24.3492 61.1822 24.0366L60.4378 23.7434ZM60.1215 24.2182C59.8337 24.4684 59.4778 24.6 59.028 24.6V25.4C59.6502 25.4 60.1983 25.2116 60.6465 24.8218L60.1215 24.2182ZM59.028 24.6H57.834V25.4H59.028V24.6ZM57.834 24.6C57.817 24.6 57.8783 24.5958 57.942 24.6579C58.0078 24.722 58.006 24.7876 58.006 24.778H57.206C57.206 24.9164 57.2422 25.093 57.384 25.2311C57.5237 25.3672 57.699 25.4 57.834 25.4V24.6ZM58.006 24.778V21.154H57.206V24.778H58.006ZM58.006 21.154C58.006 21.1397 58.0093 21.2024 57.9458 21.2658C57.8824 21.3293 57.8197 21.326 57.834 21.326V20.526C57.6963 20.526 57.5196 20.5607 57.3802 20.7002C57.2407 20.8396 57.206 21.0163 57.206 21.154H58.006ZM57.722 21.382V24.556H58.522V21.382H57.722ZM58.122 24.956H58.98V24.156H58.122V24.956ZM58.98 24.956C59.5263 24.956 60.0034 24.793 60.359 24.4266L59.785 23.8694C59.6126 24.047 59.3617 24.156 58.98 24.156V24.956ZM60.359 24.4266C60.7184 24.0563 60.868 23.5477 60.868 22.966H60.068C60.068 23.4163 59.9536 23.6957 59.785 23.8694L60.359 24.4266ZM60.868 22.966C60.868 22.3848 60.7186 21.8764 60.357 21.5093L59.787 22.0707C59.9534 22.2396 60.068 22.5152 60.068 22.966H60.868ZM60.359 21.5114C60.0034 21.145 59.5263 20.982 58.98 20.982V21.782C59.3617 21.782 59.6126 21.891 59.785 22.0686L60.359 21.5114ZM58.98 20.982H58.122V21.782H58.98V20.982Z" fill="white"/>
<path d="M63.59 21.004C63.818 20.92 64.056 20.878 64.304 20.878C64.552 20.878 64.788 20.92 65.012 21.004C65.236 21.084 65.442 21.204 65.63 21.364C65.822 21.524 65.974 21.744 66.086 22.024C66.202 22.3 66.26 22.616 66.26 22.972C66.26 23.324 66.202 23.638 66.086 23.914C65.974 24.186 65.822 24.402 65.63 24.562C65.442 24.722 65.236 24.844 65.012 24.928C64.788 25.008 64.552 25.048 64.304 25.048C64.056 25.048 63.818 25.008 63.59 24.928C63.366 24.844 63.158 24.722 62.966 24.562C62.778 24.402 62.628 24.186 62.516 23.914C62.404 23.638 62.348 23.324 62.348 22.972C62.348 22.616 62.404 22.3 62.516 22.024C62.628 21.744 62.778 21.524 62.966 21.364C63.158 21.204 63.366 21.084 63.59 21.004ZM65.312 21.76C65.032 21.48 64.696 21.34 64.304 21.34C63.912 21.34 63.574 21.48 63.29 21.76C63.01 22.04 62.87 22.442 62.87 22.966C62.87 23.486 63.01 23.886 63.29 24.166C63.574 24.446 63.912 24.586 64.304 24.586C64.696 24.586 65.032 24.446 65.312 24.166C65.596 23.886 65.738 23.486 65.738 22.966C65.738 22.442 65.596 22.04 65.312 21.76Z" fill="white"/>
<path d="M63.59 21.004L63.7245 21.3807L63.7283 21.3793L63.59 21.004ZM65.012 21.004L64.8715 21.3786L64.8775 21.3807L65.012 21.004ZM65.63 21.364L65.3707 21.6686L65.3739 21.6713L65.63 21.364ZM66.086 22.024L65.7146 22.1726L65.7172 22.179L66.086 22.024ZM66.086 23.914L65.7172 23.759L65.7161 23.7617L66.086 23.914ZM65.63 24.562L65.3739 24.2547L65.3708 24.2574L65.63 24.562ZM65.012 24.928L65.1466 25.3047L65.1524 25.3025L65.012 24.928ZM63.59 24.928L63.4495 25.3026L63.4576 25.3054L63.59 24.928ZM62.966 24.562L62.7067 24.8666L62.7099 24.8693L62.966 24.562ZM62.516 23.914L62.1454 24.0644L62.1461 24.0663L62.516 23.914ZM62.516 22.024L62.8866 22.1744L62.8874 22.1726L62.516 22.024ZM62.966 21.364L62.7099 21.0567L62.7068 21.0594L62.966 21.364ZM65.312 21.76L65.0292 22.0428L65.0312 22.0448L65.312 21.76ZM63.29 21.76L63.0092 21.4752L63.0072 21.4772L63.29 21.76ZM63.29 24.166L63.0072 24.4488L63.0092 24.4508L63.29 24.166ZM65.312 24.166L65.0312 23.8812L65.0292 23.8832L65.312 24.166ZM63.7283 21.3793C63.9111 21.312 64.1022 21.278 64.304 21.278V20.478C64.0098 20.478 63.7249 20.528 63.4517 20.6287L63.7283 21.3793ZM64.304 21.278C64.5058 21.278 64.6941 21.312 64.8716 21.3785L65.1524 20.6295C64.8819 20.528 64.5982 20.478 64.304 20.478V21.278ZM64.8775 21.3807C65.0542 21.4438 65.2182 21.5388 65.3708 21.6686L65.8892 21.0594C65.6658 20.8692 65.4178 20.7242 65.1465 20.6273L64.8775 21.3807ZM65.3739 21.6713C65.5054 21.7808 65.6222 21.9416 65.7146 22.1726L66.4574 21.8754C66.3258 21.5464 66.1386 21.2672 65.8861 21.0567L65.3739 21.6713ZM65.7172 22.179C65.8091 22.3976 65.86 22.6593 65.86 22.972H66.66C66.66 22.5727 66.5949 22.2024 66.4548 21.869L65.7172 22.179ZM65.86 22.972C65.86 23.28 65.8093 23.5399 65.7172 23.759L66.4548 24.069C66.5947 23.7361 66.66 23.368 66.66 22.972H65.86ZM65.7161 23.7617C65.6245 23.9842 65.5078 24.1431 65.3739 24.2547L65.8861 24.8693C66.1362 24.6609 66.3235 24.3878 66.4559 24.0663L65.7161 23.7617ZM65.3708 24.2574C65.2169 24.3884 65.0508 24.4862 64.8716 24.5535L65.1524 25.3025C65.4212 25.2018 65.6671 25.0556 65.8892 24.8666L65.3708 24.2574ZM64.8775 24.5513C64.6985 24.6152 64.5081 24.648 64.304 24.648V25.448C64.5959 25.448 64.8775 25.4008 65.1465 25.3047L64.8775 24.5513ZM64.304 24.648C64.0999 24.648 63.9068 24.6152 63.7224 24.5506L63.4576 25.3054C63.7292 25.4008 64.0121 25.448 64.304 25.448V24.648ZM63.7304 24.5535C63.5503 24.4859 63.3811 24.3873 63.2221 24.2547L62.7099 24.8693C62.9349 25.0567 63.1817 25.2021 63.4496 25.3025L63.7304 24.5535ZM63.2252 24.2574C63.0942 24.1458 62.9783 23.9861 62.8859 23.7617L62.1461 24.0663C62.2777 24.3859 62.4618 24.6582 62.7068 24.8666L63.2252 24.2574ZM62.8866 23.7636C62.7972 23.5432 62.748 23.2816 62.748 22.972H61.948C61.948 23.3664 62.0108 23.7328 62.1454 24.0644L62.8866 23.7636ZM62.748 22.972C62.748 22.6577 62.7974 22.3943 62.8866 22.1744L62.1454 21.8736C62.0106 22.2057 61.948 22.5743 61.948 22.972H62.748ZM62.8874 22.1726C62.9805 21.9397 63.0966 21.7781 63.2252 21.6686L62.7068 21.0594C62.4594 21.2699 62.2755 21.5483 62.1446 21.8754L62.8874 22.1726ZM63.2221 21.6713C63.3798 21.5398 63.547 21.4441 63.7245 21.3807L63.4555 20.6273C63.185 20.7239 62.9362 20.8682 62.7099 21.0567L63.2221 21.6713ZM65.5948 21.4772C65.2407 21.123 64.8033 20.94 64.304 20.94V21.74C64.5887 21.74 64.8233 21.837 65.0292 22.0428L65.5948 21.4772ZM64.304 20.94C63.8049 20.94 63.3666 21.1228 63.0092 21.4752L63.5708 22.0448C63.7814 21.8372 64.0191 21.74 64.304 21.74V20.94ZM63.0072 21.4772C62.6303 21.854 62.47 22.3714 62.47 22.966H63.27C63.27 22.5126 63.3897 22.226 63.5728 22.0428L63.0072 21.4772ZM62.47 22.966C62.47 23.5576 62.6308 24.0725 63.0072 24.4488L63.5728 23.8832C63.3892 23.6995 63.27 23.4144 63.27 22.966H62.47ZM63.0092 24.4508C63.3666 24.8032 63.8049 24.986 64.304 24.986V24.186C64.0191 24.186 63.7814 24.0888 63.5708 23.8812L63.0092 24.4508ZM64.304 24.986C64.8033 24.986 65.2407 24.803 65.5948 24.4488L65.0292 23.8832C64.8233 24.089 64.5887 24.186 64.304 24.186V24.986ZM65.5928 24.4508C65.9743 24.0748 66.138 23.5591 66.138 22.966H65.338C65.338 23.4129 65.2177 23.6972 65.0312 23.8812L65.5928 24.4508ZM66.138 22.966C66.138 22.3699 65.9748 21.8518 65.5928 21.4752L65.0312 22.0448C65.2172 22.2282 65.338 22.5141 65.338 22.966H66.138Z" fill="white"/>
<path d="M69.364 20.878C69.788 20.878 70.136 20.962 70.408 21.13C70.684 21.298 70.822 21.484 70.822 21.688C70.822 21.776 70.788 21.848 70.72 21.904C70.656 21.956 70.57 21.982 70.462 21.982C70.338 21.558 69.972 21.346 69.364 21.346C68.964 21.346 68.624 21.482 68.344 21.754C68.068 22.022 67.93 22.422 67.93 22.954C67.93 23.482 68.07 23.888 68.35 24.172C68.63 24.452 68.968 24.592 69.364 24.592C69.98 24.592 70.372 24.366 70.54 23.914C70.636 23.914 70.71 23.942 70.762 23.998C70.818 24.05 70.846 24.12 70.846 24.208C70.846 24.412 70.706 24.604 70.426 24.784C70.146 24.96 69.792 25.048 69.364 25.048C68.8 25.048 68.328 24.866 67.948 24.502C67.568 24.138 67.378 23.622 67.378 22.954C67.378 22.286 67.568 21.774 67.948 21.418C68.328 21.058 68.8 20.878 69.364 20.878Z" fill="white"/>
<path d="M70.408 21.13L70.1978 21.4703L70.2 21.4717L70.408 21.13ZM70.72 21.904L70.9722 22.2145L70.9743 22.2128L70.72 21.904ZM70.462 21.982L70.0781 22.0943L70.1622 22.382H70.462V21.982ZM68.344 21.754L68.6227 22.041L68.6227 22.0409L68.344 21.754ZM68.35 24.172L68.0652 24.4528L68.0672 24.4548L68.35 24.172ZM70.54 23.914V23.514H70.2619L70.1651 23.7746L70.54 23.914ZM70.762 23.998L70.4689 24.2702L70.479 24.281L70.4898 24.2911L70.762 23.998ZM70.426 24.784L70.6389 25.1227L70.6423 25.1205L70.426 24.784ZM67.948 24.502L67.6713 24.7909L67.6713 24.7909L67.948 24.502ZM67.948 21.418L68.2215 21.7099L68.2231 21.7084L67.948 21.418ZM69.364 21.278C69.7374 21.278 70.0064 21.3521 70.1978 21.4703L70.6182 20.7897C70.2656 20.5719 69.8386 20.478 69.364 20.478V21.278ZM70.2 21.4717C70.3101 21.5387 70.3686 21.5952 70.3973 21.6338C70.4223 21.6676 70.422 21.6832 70.422 21.688H71.222C71.222 21.276 70.938 20.9843 70.616 20.7883L70.2 21.4717ZM70.422 21.688C70.422 21.6792 70.424 21.66 70.4348 21.6372C70.4456 21.6144 70.4591 21.6007 70.4657 21.5952L70.9743 22.2128C71.1344 22.0809 71.222 21.8957 71.222 21.688H70.422ZM70.4678 21.5936C70.4733 21.5891 70.4787 21.5857 70.4833 21.5832C70.4879 21.5809 70.491 21.5798 70.4917 21.5796C70.493 21.5792 70.4844 21.582 70.462 21.582V22.382C70.6332 22.382 70.8175 22.3402 70.9722 22.2144L70.4678 21.5936ZM70.8459 21.8697C70.7565 21.564 70.5712 21.3188 70.295 21.1589C70.0301 21.0054 69.7094 20.946 69.364 20.946V21.746C69.6266 21.746 69.7929 21.7926 69.894 21.8511C69.9838 21.9032 70.0435 21.976 70.0781 22.0943L70.8459 21.8697ZM69.364 20.946C68.8628 20.946 68.422 21.1206 68.0653 21.4671L68.6227 22.0409C68.826 21.8434 69.0652 21.746 69.364 21.746V20.946ZM68.0653 21.467C67.6859 21.8355 67.53 22.3563 67.53 22.954H68.33C68.33 22.4877 68.4501 22.2085 68.6227 22.041L68.0653 21.467ZM67.53 22.954C67.53 23.5519 67.6899 24.0722 68.0652 24.4528L68.6348 23.8912C68.4501 23.7038 68.33 23.4121 68.33 22.954H67.53ZM68.0672 24.4548C68.4222 24.8099 68.8619 24.992 69.364 24.992V24.192C69.0741 24.192 68.8378 24.0941 68.6328 23.8892L68.0672 24.4548ZM69.364 24.992C69.7178 24.992 70.045 24.9275 70.3198 24.769C70.6021 24.6063 70.8008 24.3605 70.9149 24.0534L70.1651 23.7746C70.1112 23.9195 70.0299 24.0127 69.9202 24.076C69.803 24.1435 69.6262 24.192 69.364 24.192V24.992ZM70.54 24.314C70.5497 24.314 70.5427 24.3154 70.5259 24.3091C70.5073 24.3021 70.4864 24.289 70.4689 24.2702L71.0551 23.7258C70.909 23.5684 70.7168 23.514 70.54 23.514V24.314ZM70.4898 24.2911C70.4751 24.2774 70.4619 24.2588 70.4536 24.2381C70.4458 24.2186 70.446 24.2065 70.446 24.208H71.246C71.246 24.0273 71.1843 23.8443 71.0342 23.7049L70.4898 24.2911ZM70.446 24.208C70.446 24.2119 70.4464 24.2301 70.4178 24.2693C70.386 24.3129 70.3236 24.3743 70.2097 24.4475L70.6423 25.1205C70.9624 24.9147 71.246 24.6176 71.246 24.208H70.446ZM70.2131 24.4453C70.0131 24.5711 69.7385 24.648 69.364 24.648V25.448C69.8455 25.448 70.2789 25.3489 70.6389 25.1227L70.2131 24.4453ZM69.364 24.648C68.895 24.648 68.5246 24.5004 68.2247 24.2131L67.6713 24.7909C68.1314 25.2316 68.705 25.448 69.364 25.448V24.648ZM68.2247 24.2131C67.9434 23.9437 67.778 23.544 67.778 22.954H66.978C66.978 23.7 67.1926 24.3323 67.6713 24.7909L68.2247 24.2131ZM67.778 22.954C67.778 22.3635 67.9435 21.9703 68.2215 21.7099L67.6745 21.1261C67.1925 21.5777 66.978 22.2085 66.978 22.954H67.778ZM68.2231 21.7084C68.5227 21.4245 68.8937 21.278 69.364 21.278V20.478C68.7063 20.478 68.1333 20.6915 67.6729 21.1276L68.2231 21.7084Z" fill="white"/>
<defs>
<clipPath id="clip0_0_1">
<rect width="77" height="27" fill="white"/>
</clipPath>
</defs>
</svg>
