<svg width="34px" height="34px" viewBox="-2.542 0 34 34" version="1.1" xmlns="http://www.w3.org/2000/svg" xmlns:xlink="http://www.w3.org/1999/xlink" preserveAspectRatio="xMidYMid"><defs><path x1="0%" y1="50.017894%" x2="100.096998%" y2="50.017894%" id="linearGradient-1" d=""><stop stop-color="#FFFFFF" offset="0%"/><stop stop-color="#FFFFFF" stop-opacity="0.9576" offset="14.13%"/><stop stop-color="#FFFFFF" stop-opacity="0.7" offset="100%"/></path><path x1="-0.0390588235%" y1="49.9824538%" x2="100%" y2="49.9824538%" id="linearGradient-2" d=""><stop stop-color="#F1F1F2" offset="0%"/><stop stop-color="#E4E5E6" offset="9.191442%"/><stop stop-color="#D9DADB" offset="23.57%"/><stop stop-color="#D2D4D5" offset="43.8%"/><stop stop-color="#D0D2D3" offset="100%"/></path></defs><g><path d="M28.917 10.968L27.866 8.133L28.589 6.506C28.68 6.292 28.635 6.054 28.476 5.885L26.5 3.886C25.63 3.016 24.342 2.711 23.179 3.118L22.625 3.31L19.598 0.034L14.481 0L14.447 0L9.296 0.045L6.28 3.344L5.738 3.151C4.563 2.734 3.264 3.039 2.395 3.931L0.384 5.964C0.249 6.1 0.215 6.292 0.282 6.461L1.039 8.155L0 10.991L0.678 13.555L3.75 25.223C4.1 26.567 4.914 27.742 6.054 28.555C6.054 28.555 9.782 31.187 13.453 33.571C13.781 33.785 14.12 33.932 14.481 33.932C14.843 33.932 15.181 33.785 15.509 33.571C19.643 30.86 22.908 28.544 22.908 28.544C24.037 27.731 24.85 26.556 25.201 25.212L28.25 13.544L28.917 10.968Z" fill="#F15A22"/><path d="M3.897 25.72L0 11.239L1.141 8.404L0.35 6.303L2.237 4.383C2.858 3.829 4.078 3.637 4.643 3.965L7.591 5.659L11.431 6.551L14.425 5.309L14.673 31.029C14.628 34.734 14.865 34.339 12.143 32.588L5.422 28.081C4.699 27.392 4.146 26.613 3.897 25.72Z" fill="url(#linearGradient-1)" opacity="0.15" style="mix-blend-mode: lighten;"/><path d="M22.84 28.493L17.124 32.401C15.532 33.271 14.763 34.129 14.639 33.711C14.538 33.384 14.617 32.424 14.583 30.933L14.515 5.777C14.526 5.529 14.696 5.111 14.989 5.156L17.904 6.037L22.106 5.382L24.884 3.337C25.178 3.111 25.607 3.134 25.878 3.394L28.363 5.766C28.589 6.003 28.601 6.466 28.465 6.76L27.776 8.036L28.917 10.985L24.986 25.601C24.376 27.42 23.518 27.894 22.84 28.493Z" fill="url(#linearGradient-2)" opacity="0.4" style="mix-blend-mode: darken;"/><path d="M15.136 20.875C15.001 20.818 14.854 20.773 14.809 20.773L14.628 20.773L14.447 20.773C14.402 20.773 14.255 20.818 14.12 20.875L12.651 21.485C12.516 21.541 12.29 21.643 12.154 21.71L9.94 22.863C9.805 22.93 9.793 23.055 9.918 23.145L11.872 24.523C11.996 24.613 12.188 24.76 12.301 24.862L13.171 25.607C13.284 25.709 13.464 25.867 13.577 25.969L14.413 26.714C14.526 26.816 14.707 26.816 14.82 26.714L15.678 25.969C15.791 25.867 15.972 25.709 16.085 25.607L16.955 24.851C17.068 24.749 17.26 24.602 17.384 24.512L19.338 23.122C19.462 23.032 19.451 22.908 19.316 22.84L17.102 21.71C16.966 21.643 16.74 21.541 16.605 21.485L15.136 20.875Z" fill="#FFFFFF"/><path d="M25.733 11.472C25.778 11.325 25.778 11.268 25.778 11.268C25.778 11.121 25.767 10.873 25.744 10.726L25.631 10.398C25.564 10.263 25.451 10.048 25.36 9.924L24.084 8.038C24.005 7.913 23.858 7.721 23.756 7.597L22.107 5.53C22.017 5.417 21.926 5.315 21.915 5.327L21.893 5.327C21.893 5.327 21.768 5.349 21.621 5.372L19.102 5.869C18.956 5.903 18.718 5.948 18.572 5.971L18.526 5.982C18.38 6.004 18.142 5.993 17.996 5.948L15.883 5.27C15.736 5.225 15.499 5.157 15.364 5.123C15.364 5.123 14.934 5.022 14.584 5.033C14.234 5.033 13.805 5.123 13.805 5.123C13.658 5.157 13.421 5.225 13.285 5.27L11.173 5.948C11.026 5.993 10.789 6.004 10.642 5.982L10.597 5.971C10.45 5.948 10.213 5.892 10.066 5.869L7.524 5.394C7.378 5.361 7.253 5.349 7.253 5.349L7.231 5.349C7.219 5.349 7.129 5.44 7.039 5.553L5.39 7.62C5.299 7.733 5.152 7.936 5.062 8.06L3.786 9.947C3.706 10.071 3.582 10.286 3.514 10.421L3.402 10.749C3.379 10.895 3.356 11.144 3.368 11.291C3.368 11.291 3.368 11.336 3.413 11.494C3.492 11.765 3.684 12.014 3.684 12.014C3.774 12.127 3.944 12.319 4.045 12.42L7.784 16.396C7.886 16.509 7.92 16.713 7.863 16.848L7.084 18.69C7.027 18.825 7.016 19.051 7.073 19.198L7.287 19.774C7.468 20.26 7.773 20.689 8.18 21.016L8.936 21.626C9.049 21.717 9.253 21.751 9.388 21.683L11.783 20.542C11.918 20.474 12.122 20.339 12.235 20.237L13.952 18.69C14.2 18.464 14.211 18.08 13.986 17.831L10.382 15.402C10.258 15.323 10.213 15.143 10.281 15.007L11.862 12.025C11.93 11.89 11.941 11.675 11.885 11.539L11.693 11.099C11.636 10.963 11.467 10.805 11.331 10.749L6.689 9.009C6.553 8.953 6.553 8.896 6.7 8.885L9.693 8.602C9.84 8.591 10.077 8.614 10.224 8.648L12.89 9.393C13.037 9.438 13.127 9.585 13.104 9.732L12.178 14.804C12.156 14.951 12.156 15.154 12.19 15.267C12.223 15.38 12.37 15.482 12.517 15.515L14.37 15.911C14.516 15.945 14.754 15.945 14.901 15.911L16.629 15.515C16.776 15.482 16.922 15.369 16.956 15.267C16.99 15.165 17.002 14.951 16.968 14.804L16.053 9.732C16.03 9.585 16.12 9.427 16.267 9.393L18.933 8.648C19.08 8.602 19.317 8.591 19.464 8.602L22.457 8.885C22.604 8.896 22.615 8.953 22.469 9.009L17.826 10.771C17.691 10.828 17.521 10.975 17.465 11.121L17.273 11.562C17.216 11.697 17.216 11.923 17.295 12.048L18.888 15.03C18.956 15.165 18.91 15.335 18.786 15.425L15.183 17.865C14.946 18.102 14.968 18.497 15.217 18.723L16.934 20.271C17.047 20.373 17.25 20.508 17.386 20.565L19.792 21.705C19.927 21.773 20.13 21.739 20.243 21.649L21 21.028C21.407 20.7 21.712 20.271 21.881 19.785L22.096 19.209C22.152 19.074 22.141 18.836 22.085 18.701L21.305 16.86C21.249 16.724 21.283 16.521 21.384 16.408L25.123 12.432C25.225 12.319 25.383 12.138 25.485 12.025C25.462 11.991 25.665 11.743 25.733 11.472Z" fill="#FFFFFF"/></g></svg>